<svg width="710" height="573" viewBox="0 0 710 573" fill="none" xmlns="http://www.w3.org/2000/svg">
<path d="M176.411 376.942L172.039 374.281C170.83 376.347 169.359 378.201 167.931 379.598C166.74 380.764 164.909 380.736 163.748 379.535L163.608 379.39C162.328 378.066 162.358 375.847 163.688 374.582C165.042 373.292 166.357 371.68 167.379 369.747C168.866 366.931 168.872 364.388 167.031 363.268C165.282 362.203 163.342 363.112 160.26 366.067C155.811 370.344 151.605 372.55 147.14 369.833C143.09 367.367 141.533 362.372 143.359 356.498L138.987 353.837L141.544 348.995L145.594 351.461C146.618 349.71 147.622 348.37 148.582 347.322C149.754 346.041 151.673 346.025 152.877 347.271C154.122 348.559 154.128 350.701 152.884 351.991C151.952 352.958 150.939 354.238 150.018 355.982C148.322 359.193 149.062 361.014 150.351 361.798C151.87 362.723 153.75 361.582 157.441 358.28C162.48 353.578 166.264 352.747 170.405 355.269C174.502 357.762 176.355 363.003 174.274 369.244L178.969 372.102L176.411 376.942Z" fill="#FFCE88"/>
<path d="M386.717 452.273C397.742 436.347 406.597 436.208 406.597 436.208C406.597 436.208 410.616 408.226 407.409 396.323C404.203 384.419 389.705 394.858 389.705 394.858C389.705 394.858 408.927 354.414 401.043 349.871C386.358 341.409 363.225 384.309 363.225 384.309C363.225 384.309 368.643 365.426 358.258 365.496C342.596 365.602 341.242 408.897 341.242 408.897C341.242 408.897 338.154 400.367 328.491 405.253C318.083 410.517 315.264 442.215 314.672 466.71H369.537C377.386 461.551 383.798 456.491 386.717 452.273Z" fill="#80C54F"/>
<path d="M365.144 380.86C365.144 380.86 365.789 359.343 355.404 359.413C339.742 359.519 341.242 408.897 341.242 408.897C341.242 408.897 334.7 394.926 325.037 399.813C314.432 405.176 313.172 440.211 313.588 466.71H331.813L401.043 349.871C386.357 341.409 365.144 380.86 365.144 380.86Z" fill="#639D31"/>
<path d="M450.424 465.312C450.424 465.312 500.421 471.491 512.531 466.938C524.642 462.385 516.622 455.105 516.622 455.105C516.622 455.105 542.234 451.593 544.705 443.411C547.176 435.229 535.057 435.177 535.057 435.177C535.057 435.177 560.766 419.951 557.881 414.047C552.504 403.05 523.657 418.054 523.657 418.054C523.657 418.054 533.616 409.461 527.62 405.165C518.577 398.686 502.107 423.011 502.107 423.011C502.107 423.011 503.423 416.818 496.097 415.593C482.952 413.394 450.424 465.312 450.424 465.312Z" fill="#80C54F"/>
<path d="M496.083 411.022C503.409 412.247 502.107 423.012 502.107 423.012C502.107 423.012 519.141 393.997 528.183 400.476C534.179 404.772 526.01 416.873 526.01 416.873C526.01 416.873 552.504 403.05 557.879 414.047L455.21 461.872C458.98 455.789 483.805 408.969 496.083 411.022Z" fill="#639D31"/>
<path d="M450.114 466.093C450.114 466.093 495.609 432.116 502.154 417.179C508.699 402.241 496.165 403.486 496.165 403.486C496.165 403.486 514.88 377.034 510.439 367.895C505.997 358.755 495.777 369.832 495.777 369.832C495.777 369.832 505.243 333.452 498.116 331.142C484.842 326.838 471.857 372.907 471.857 372.907C471.857 372.907 466.899 347.42 458.441 349.313C445.686 352.17 458.413 389.85 458.413 389.85C458.413 389.85 454.65 377.576 447.521 383.27C434.729 393.486 450.114 466.093 450.114 466.093Z" fill="#80C54F"/>
<path d="M435.076 383.858C443.108 379.779 444.722 371.198 444.722 371.198C444.722 371.198 444.776 349.891 457.532 347.035C465.989 345.141 471.91 362.259 471.91 362.259C471.91 362.259 484.842 326.838 498.117 331.142L449.977 465.523C448.298 456.955 425.508 388.716 435.076 383.858Z" fill="#639D31"/>
<path d="M436.087 466.198H344.345C341.419 466.198 339.047 463.653 339.047 460.512C339.047 457.372 341.419 454.826 344.345 454.826H436.087C439.012 454.826 441.384 457.372 441.384 460.512C441.384 463.653 439.012 466.198 436.087 466.198Z" fill="#D3D3D3"/>
<path d="M452.132 455.164H360.39C357.465 455.164 355.093 452.618 355.093 449.478C355.093 446.338 357.465 443.792 360.39 443.792H452.132C455.058 443.792 457.43 446.338 457.43 449.478C457.43 452.618 455.058 455.164 452.132 455.164Z" fill="#AAAAAA"/>
<path d="M439.296 444.711H347.554C344.629 444.711 342.257 442.165 342.257 439.025C342.257 435.885 344.629 433.339 347.554 433.339H439.296C442.222 433.339 444.594 435.885 444.594 439.025C444.594 442.165 442.221 444.711 439.296 444.711Z" fill="#D3D3D3"/>
<path d="M428.598 433.386H336.857C333.931 433.386 331.559 430.84 331.559 427.7C331.559 424.56 333.931 422.014 336.857 422.014H428.598C431.524 422.014 433.896 424.56 433.896 427.7C433.896 430.841 431.524 433.386 428.598 433.386Z" fill="#AAAAAA"/>
<path d="M493.585 420.27C493.585 447.462 473.048 469.505 447.715 469.505C422.382 469.505 401.845 447.462 401.845 420.27C401.845 393.078 422.382 371.035 447.715 371.035C473.048 371.035 493.585 393.078 493.585 420.27Z" fill="#FFCE88"/>
<path d="M486.206 420.27C486.206 443.088 468.973 461.585 447.715 461.585C426.457 461.585 409.224 443.087 409.224 420.27C409.224 397.453 426.457 378.955 447.715 378.955C468.973 378.955 486.206 397.453 486.206 420.27Z" fill="#FFBE55"/>
<path d="M435.798 446.798L437.989 440.313C435.303 439.12 432.812 437.526 430.867 435.893C429.243 434.53 428.884 432.048 430.047 430.22L430.186 430C431.467 427.985 434.08 427.551 435.85 429.079C437.653 430.637 439.828 432.071 442.316 433.039C445.941 434.45 448.929 433.913 449.851 431.183C450.727 428.589 449.245 426.159 445.116 422.621C439.142 417.517 435.653 412.297 437.889 405.676C439.918 399.67 445.452 396.495 452.74 397.709L454.93 391.225L461.162 393.65L459.133 399.657C461.407 400.668 463.195 401.74 464.632 402.813C466.386 404.126 466.816 406.719 465.61 408.614C464.363 410.574 461.85 411.04 460.069 409.633C458.734 408.578 457.015 407.482 454.77 406.609C450.637 405 448.656 406.391 448.011 408.302C447.25 410.555 448.991 412.854 453.658 417.142C460.257 422.954 462.041 427.895 459.966 434.038C457.914 440.113 452.156 443.741 444.382 442.26L442.03 449.223L435.798 446.798Z" fill="white"/>
<path d="M282.288 464.198C282.288 464.198 211.008 426.473 198.749 406.798C186.491 387.122 204.511 386.007 204.511 386.007C204.511 386.007 172.702 352.801 177.177 338.822C181.652 324.843 198.352 338.2 198.352 338.2C198.352 338.2 177.677 288.793 187.321 283.88C205.284 274.73 230.483 327.311 230.483 327.311C230.483 327.311 225.067 304.469 237.437 305.211C256.091 306.33 255.321 358.002 255.321 358.002C255.321 358.002 257.427 338.19 268.671 344.625C288.844 356.172 282.288 464.198 282.288 464.198Z" fill="#639D31"/>
<path d="M272.73 336.633C263.95 331.403 255.206 346.688 255.206 346.688C255.206 346.688 256.091 306.331 237.437 305.211C225.067 304.469 230.483 327.311 230.483 327.311C230.483 327.311 205.284 274.73 187.321 283.881L282.37 463.358C283.042 450.825 290.123 346.992 272.73 336.633Z" fill="#80C54F"/>
<path d="M280.446 464.665C280.446 464.665 222.148 472.437 207.054 465.511C191.959 458.585 202.777 450.031 202.777 450.031C202.777 450.031 170.365 443.193 167.864 432.522C165.364 421.85 180.837 422.898 180.837 422.898C180.837 422.898 149.237 401.099 153.393 393.828C161.133 380.286 196.756 402.092 196.756 402.092C196.756 402.092 184.731 390.207 192.727 385.275C204.786 377.837 223.866 410.402 223.866 410.402C223.866 410.402 222.681 402.375 232.13 401.486C249.084 399.889 280.446 464.665 280.446 464.665Z" fill="#639D31"/>
<path d="M232.513 395.653C223.064 396.543 223.866 410.402 223.866 410.402C223.866 410.402 204.441 371.8 192.382 379.238C184.385 384.17 193.846 400.368 193.846 400.368C193.846 400.368 161.132 380.286 153.392 393.829L280.623 464.319C276.297 456.208 248.349 394.162 232.513 395.653Z" fill="#80C54F"/>
<path d="M159.156 467.88C159.156 468.852 159.89 469.639 160.795 469.639H569.375C570.28 469.639 571.014 468.852 571.014 467.88C571.014 466.908 570.28 466.121 569.375 466.121H160.795C159.89 466.121 159.156 466.908 159.156 467.88Z" fill="#0E538B"/>
<path d="M445.131 161.917L443.052 167.478L434.347 164.877L430.374 172.605L423.562 171.802L423.184 175.503L432.293 176.577L436.059 169.253L445.115 171.959L448.242 163.591L445.131 161.917Z" fill="#639D31"/>
<path d="M476.093 310.882L478.232 305.183C475.877 304.03 473.705 302.527 472.021 301.007C470.615 299.739 470.368 297.517 471.457 295.928L471.588 295.737C472.787 293.987 475.125 293.688 476.657 295.109C478.217 296.556 480.111 297.906 482.299 298.852C485.485 300.23 488.16 299.853 489.061 297.453C489.917 295.174 488.668 292.96 485.096 289.671C479.926 284.925 476.972 280.16 479.157 274.341C481.139 269.062 486.158 266.421 492.612 267.748L494.751 262.048L500.229 264.418L498.247 269.697C500.243 270.674 501.803 271.688 503.05 272.693C504.574 273.92 504.881 276.243 503.752 277.89C502.585 279.593 500.333 279.923 498.789 278.611C497.631 277.626 496.132 276.593 494.159 275.739C490.526 274.168 488.722 275.34 488.091 277.02C487.348 279 488.831 281.105 492.861 285.08C498.566 290.477 500.01 294.937 497.983 300.336C495.979 305.676 490.745 308.712 483.868 307.132L481.57 313.251L476.093 310.882Z" fill="#D3D3D3"/>
<path d="M358.524 466.133H250.766C246.473 466.133 242.992 462.397 242.992 457.789C242.992 453.181 246.473 449.445 250.766 449.445H358.524C362.817 449.445 366.297 453.181 366.297 457.789C366.297 462.397 362.817 466.133 358.524 466.133Z" fill="#FFCE88"/>
<path d="M374.72 449.616H273.277C268.984 449.616 265.504 445.88 265.504 441.272C265.504 436.664 268.984 432.928 273.277 432.928H374.72C379.014 432.928 382.494 436.664 382.494 441.272C382.494 445.88 379.014 449.616 374.72 449.616Z" fill="#FFBE55"/>
<path d="M360.269 432.922H263.23C259.035 432.922 255.634 429.272 255.634 424.768V424.382C255.634 419.88 259.035 416.229 263.23 416.229H360.269C364.465 416.229 367.865 419.88 367.865 424.382V424.768C367.865 429.272 364.464 432.922 360.269 432.922Z" fill="#FFCE88"/>
<path d="M360.172 416.275H262.68C258.557 416.275 255.214 412.687 255.214 408.262V407.601C255.214 403.175 258.557 399.587 262.68 399.587H360.172C364.295 399.587 367.638 403.175 367.638 407.601V408.262C367.638 412.687 364.295 416.275 360.172 416.275Z" fill="#FFBE55"/>
<path d="M363.383 400.569H264.997C260.704 400.569 257.224 396.833 257.224 392.225C257.224 387.617 260.704 383.881 264.997 383.881H363.383C367.677 383.881 371.157 387.617 371.157 392.225C371.157 396.833 367.677 400.569 363.383 400.569Z" fill="#FFCE88"/>
<path d="M359.137 384.092H260.751C256.458 384.092 252.978 380.356 252.978 375.748C252.978 371.14 256.458 367.405 260.751 367.405H359.137C363.43 367.405 366.911 371.14 366.911 375.748C366.911 380.356 363.43 384.092 359.137 384.092Z" fill="#FFBE55"/>
<path d="M364.066 351.854H269.826C265.618 351.854 262.207 348.193 262.207 343.675V343.346C262.207 338.829 265.618 335.167 269.826 335.167H364.066C368.275 335.167 371.686 338.829 371.686 343.346V343.675C371.686 348.193 368.275 351.854 364.066 351.854Z" fill="#FFBE55"/>
<path d="M372.51 367.899H281.974C277.843 367.899 274.494 364.304 274.494 359.87V359.241C274.494 354.806 277.843 351.212 281.974 351.212H372.51C376.641 351.212 379.989 354.807 379.989 359.241V359.87C379.989 364.304 376.641 367.899 372.51 367.899Z" fill="#FFCE88"/>
<path d="M267.745 383.525C286.275 401.868 287.443 432.862 270.353 452.752C253.264 472.641 224.388 473.894 205.858 455.551C187.328 437.208 186.161 406.214 203.25 386.325C220.34 366.435 249.215 365.181 267.745 383.525Z" fill="#FFCE88"/>
<path d="M262.767 389.318C278.316 404.711 279.296 430.719 264.956 447.409C250.615 464.099 226.385 465.151 210.836 449.758C195.287 434.365 194.307 408.357 208.647 391.667C222.988 374.977 247.218 373.926 262.767 389.318Z" fill="#FFBE55"/>
<path d="M261.92 432.377C262.801 433.619 262.74 435.355 261.773 436.522C259.877 438.809 256.776 441.575 252.881 443.628C247.184 446.63 240.639 447.548 234.461 445.284C230.6 443.869 226.921 440.978 224.152 437.032L220.785 438.806C219.641 439.409 218.258 438.903 217.696 437.674L217.654 437.581C217.092 436.353 217.564 434.868 218.708 434.266L221.471 432.81C220.918 431.836 220.535 431.233 220.281 430.677C219.857 429.751 219.435 428.593 219.056 427.297L216.208 428.798C215.063 429.401 213.68 428.894 213.119 427.666C212.557 426.438 213.029 424.954 214.173 424.351L217.627 422.531C216.627 417.768 216.789 412.968 218.106 408.823C220.348 401.777 225.287 396.414 231.244 393.275C234.717 391.445 237.642 390.705 240.038 390.427C241.704 390.233 243.214 391.488 243.455 393.268L243.463 393.324C243.712 395.169 242.505 396.863 240.785 397.118C238.828 397.408 236.545 398.072 233.955 399.437C230.157 401.438 226.952 404.737 225.371 409.48C224.492 412.243 224.255 415.473 225.137 418.573L244.562 408.337C245.706 407.734 247.089 408.241 247.651 409.469C248.213 410.697 247.74 412.181 246.596 412.784L226.309 423.475C226.688 424.54 227.068 425.605 227.365 426.254C227.746 427.088 228.128 427.921 228.723 428.988L249.053 418.274C250.222 417.659 251.634 418.176 252.207 419.43C252.781 420.684 252.299 422.2 251.131 422.815L231.663 433.074C233.496 435.442 235.764 437.122 238.081 437.971C242.672 439.576 246.719 439.054 251.036 436.78C253.667 435.393 255.802 433.646 257.395 432.002C258.705 430.651 260.819 430.824 261.92 432.377Z" fill="white"/>
<path d="M261.915 288.071C262.521 289.124 262.348 290.49 261.501 291.331C259.84 292.98 257.194 294.907 253.971 296.205C249.258 298.105 244.025 298.288 239.31 295.989C236.363 294.553 233.666 291.966 231.764 288.622L228.979 289.744C228.032 290.125 226.976 289.611 226.621 288.595L226.594 288.517C226.239 287.501 226.718 286.368 227.665 285.987L229.95 285.066C229.584 284.252 229.325 283.744 229.164 283.284C228.896 282.517 228.645 281.569 228.44 280.514L226.083 281.464C225.137 281.845 224.081 281.33 223.726 280.314C223.371 279.298 223.85 278.165 224.797 277.784L227.654 276.633C227.206 272.79 227.678 269.014 229.016 265.851C231.292 260.474 235.576 256.649 240.505 254.664C243.377 253.506 245.74 253.164 247.652 253.142C248.981 253.127 250.083 254.243 250.145 255.668L250.147 255.713C250.212 257.19 249.137 258.428 247.76 258.486C246.195 258.553 244.345 258.889 242.202 259.752C239.06 261.018 236.293 263.357 234.705 266.971C233.812 269.079 233.393 271.61 233.867 274.13L249.937 267.656C250.884 267.275 251.939 267.789 252.295 268.805C252.65 269.821 252.17 270.954 251.224 271.336L234.439 278.097C234.663 278.969 234.886 279.841 235.074 280.378C235.315 281.068 235.556 281.758 235.949 282.649L252.769 275.873C253.736 275.484 254.814 276.009 255.176 277.046C255.539 278.084 255.05 279.241 254.083 279.63L237.977 286.118C239.255 288.14 240.925 289.653 242.693 290.516C246.202 292.163 249.435 292.085 253.006 290.647C255.182 289.77 256.993 288.566 258.369 287.401C259.501 286.443 261.157 286.754 261.915 288.071Z" fill="#D3D3D3"/>
<path d="M411.067 230.419L416.195 227.633L421.24 230.587C421.815 230.924 422.499 230.407 422.399 229.713L421.514 223.617L425.691 219.38C426.167 218.897 425.92 218.038 425.274 217.927L419.6 216.946L417.136 211.372C416.855 210.737 416.018 210.723 415.72 211.348L413.097 216.838L407.397 217.631C406.748 217.721 406.477 218.571 406.939 219.069L410.992 223.443L409.933 229.506C409.813 230.197 410.483 230.736 411.067 230.419Z" fill="#FFBE55"/>
<path d="M308.15 118.55L302.85 119.127L301.043 110.078L293.197 109.896L290.813 103.361L287.731 104.656L290.92 113.397L298.355 113.569L300.235 122.983L308.21 122.114L308.15 118.55Z" fill="#FFBE55"/>
<path d="M417.04 254.162L422.71 256.169C422.71 256.169 431.699 253.043 432.584 251.076C433.47 249.11 433.72 244.338 434.999 244.208C436.278 244.078 438.75 244.524 439.338 247.79C439.766 250.161 436.531 257.012 437.037 257.741C437.353 258.198 440.581 259.451 442.953 260.326C444.512 260.901 445.638 262.375 445.877 264.152L445.878 264.157C446.04 265.359 445.406 266.529 444.358 266.963L442.727 267.639L443.248 269.447C443.635 270.793 442.948 272.239 441.71 272.685L440.448 273.139L440.851 274.24C441.371 275.658 440.639 277.267 439.282 277.691L438.179 278.035L438.225 278.351C438.414 279.667 437.646 280.933 436.456 281.268L435.361 281.576L420.262 276.227C418.847 275.726 417.545 274.915 416.434 273.842L411.419 271.001C410.88 270.696 410.632 270.004 410.836 269.376L415.485 255.006C415.709 254.312 416.402 253.936 417.04 254.162Z" fill="#FFCE88"/>
<path d="M235.263 234.55C235.19 234.326 233.414 231.067 231.122 227.527C220.46 211.038 204.649 195.147 186.108 195.744L186.094 195.622C194.477 194.635 202.691 197.032 209.901 201.303C221.796 208.186 233.386 221.301 239.727 231.383L235.263 234.55Z" fill="#FFBE55"/>
<path d="M357.197 213.977C357.197 213.977 357.741 212.797 357.708 210.072C357.668 206.702 357.038 201.613 356.913 201.163C356.686 200.35 366.842 196.933 366.842 196.933C366.842 196.933 383.138 196.038 385.564 194.085C387.989 192.133 390.03 191.329 388.899 193.353C386.852 197.014 382.077 202.384 381.016 203.116C379.955 203.848 367.297 207.265 367.069 207.265C366.842 207.265 366.918 215.808 366.918 215.808L357.197 213.977Z" fill="#F7A491"/>
<path d="M367.771 210.336C367.771 210.336 357.219 208.411 357.027 209.543C352.763 234.601 352.04 242.883 351.569 243.143C349.963 244.03 326.997 222.396 323.202 220.98C321.387 220.302 319.412 220.415 317.518 220.475C313.004 220.618 314.526 220.502 312.146 220.628L312.149 220.633C312.02 220.643 311.947 220.648 311.947 220.648L311.972 225.206C317.058 230.118 328.703 304.522 329.683 304.473C330.779 304.418 353.794 310.635 353.388 308.554C353.323 308.215 337.785 294.568 333.378 274.872C331.899 268.26 331.169 261.14 330.367 254.909C335.48 257.661 355.453 268.212 358.618 266.818C368.465 262.482 367.771 210.336 367.771 210.336Z" fill="#D3D3D3"/>
<path d="M407.406 342.445C407.406 342.445 428.819 360.449 429.533 363.64C430.562 368.238 450.17 362.194 445.442 361.258C444.354 361.043 440.873 360.095 440.586 359.931C439.055 359.053 420.002 334.408 420.002 334.408L407.406 342.445Z" fill="#F7A491"/>
<path d="M454.637 361.258L440.965 360.063C440.965 360.063 437.057 363.535 429.547 363.698C429.547 363.698 428.346 367.38 428.917 371.685C429.016 372.428 429.132 374.672 429.829 374.621C432.355 374.436 439.085 372.639 446.753 370.993C446.753 370.993 457.058 368.65 463.01 364.828C468.962 361.006 454.637 361.258 454.637 361.258Z" fill="#1E0F00"/>
<path d="M311.46 297.283C311.46 297.283 327.141 300.111 344.484 295.757C364.551 290.717 386.74 286.059 393.242 290.116C398.475 293.381 431.155 346.385 431.155 346.385L418.535 356.269L382.552 313.021C382.552 313.021 336.644 331.202 326.333 329.187C302.851 324.598 302.518 304.469 311.46 297.283Z" fill="#80C54F"/>
<path d="M328.603 286.588L344.293 306.601L315.188 316.12L311.46 297.283L328.603 286.588Z" fill="#80C54F"/>
<path d="M360.489 378.005C360.489 378.005 359.535 405.803 358.944 410.511C358.355 415.197 369.934 429.316 368.455 424.405C368.114 423.275 367.237 419.536 367.236 419.188C367.229 417.324 371.53 385.613 371.53 385.613L360.489 378.005Z" fill="#F7A491"/>
<path d="M372.823 433.089L367.307 419.608C367.307 419.608 362.605 417.567 358.903 410.551C358.903 410.551 355.314 411.166 352.056 413.751C351.494 414.197 347.664 417.203 347.931 417.896C348.913 420.449 354.128 425.917 359.83 431.89C359.83 431.89 367.913 438.888 373.875 442.694C379.836 446.499 372.823 433.089 372.823 433.089Z" fill="#1E0F00"/>
<path d="M385.905 323.198C380.421 315.349 336.167 307.895 336.167 307.895L323.828 282.438L296.542 300.5C296.542 300.5 299.269 323.805 301.317 330.032C304.046 338.33 322.383 338.753 333.583 338.63C343.888 338.516 362.711 340.771 362.711 340.771L356.344 401.056C356.344 401.056 368.858 404.113 372.375 403.619C372.773 403.563 392.727 332.961 385.905 323.198Z" fill="#80C54F"/>
<path d="M312.099 220.689L296.703 221.595C296.703 221.595 296.351 221.728 296.244 221.749C294.99 221.998 296.129 270.153 297.248 288.138C298.366 306.124 300.634 313.679 300.634 313.679C300.634 313.679 321.514 309.7 327.921 307.03C330.58 305.923 337.016 297.286 337.016 297.286C337.016 297.286 330.441 287.797 327.129 272.385C324.575 260.498 321.424 239.426 319.621 235.028C315.481 224.927 312.099 220.689 312.099 220.689Z" fill="white"/>
<path d="M297.142 207.022L296.705 221.612C296.705 221.612 306.67 240.043 311.787 237.474C316.08 235.319 312.269 221.299 312.269 221.299C312.269 221.299 311.526 218.084 310.495 214.391C309.774 211.811 309.176 209.016 309.22 206.964C309.327 201.978 297.142 207.022 297.142 207.022Z" fill="#F7A491"/>
<path d="M309.048 173.746C309.048 173.746 314.126 181.963 314.505 188.879C314.884 195.794 313.52 200.512 313.52 200.512L297.224 179.604L309.048 173.746Z" fill="#1E0F00"/>
<path d="M316.193 187.464C316.422 189.885 315.546 191.964 314.235 192.108C312.923 192.251 311.674 190.405 311.445 187.984C311.215 185.562 312.092 183.483 313.403 183.339C314.714 183.196 315.963 185.042 316.193 187.464Z" fill="#F48C7F"/>
<path d="M291.951 182.954C291.578 182.868 291.614 202.997 297.049 207.734C302.485 212.471 311.946 212.887 314.708 208.116C317.764 202.838 314.857 181.628 306.773 177.123C298.689 172.619 291.951 182.954 291.951 182.954Z" fill="#F7A491"/>
<path d="M290.573 170.472C286.423 174.377 284.414 177.23 281.606 184.173C278.154 192.71 285.003 201.554 290.747 205.069C296.49 208.584 296.977 212.899 296.977 212.899L297.205 210.214C297.451 208.129 296.864 206.94 296.314 205.679C295.825 204.557 294.255 200.713 293.643 199.699C292.027 197.023 291.708 196.444 292.505 193.902C293.12 191.945 292.409 187.63 293.358 184.404L301.089 182.614C301.089 182.614 305.927 181.366 308.37 178.341C315.385 169.654 301.516 159.968 290.573 170.472Z" fill="#1E0F00"/>
<path d="M294.345 196.105C295.297 198.314 295.099 200.586 293.903 201.181C292.707 201.775 290.965 200.466 290.013 198.257C289.061 196.049 289.259 193.776 290.455 193.182C291.651 192.587 293.393 193.896 294.345 196.105Z" fill="#F7A491"/>
<path d="M190.221 203.318L188.967 194.045L195.373 187.679C196.102 186.954 195.741 185.646 194.761 185.465L186.157 183.88L182.496 175.374C182.079 174.405 180.808 174.37 180.345 175.315L176.282 183.608L167.613 184.717C166.626 184.843 166.203 186.129 166.896 186.894L172.989 193.604L171.293 202.796C171.099 203.843 172.109 204.673 173 204.201L180.829 200.055L188.449 204.627C189.317 205.148 190.364 204.374 190.221 203.318Z" fill="#FFBE55"/>
<path d="M241.665 140.578C242.544 144.452 244.128 150.576 244.128 150.576C244.003 152.26 243.539 159.266 242.988 167.853L254.747 162.802C254.747 162.802 254.606 148.81 255.131 147.954C255.574 147.229 256.32 148.133 259.924 142.597C260.965 140.999 261.159 138.144 261.159 138.144C261.159 138.144 261.374 134.63 260.638 134.303C259.903 133.975 259.06 134.5 258.794 135.107C258.527 135.714 258.596 137.129 258.33 137.736C258.064 138.343 256.363 139.075 255.647 139.037C254.93 138.999 255.736 128.642 255.736 128.642C255.736 128.642 256.136 125.705 256.339 124.744C256.512 123.924 257.206 121.522 257.206 121.522C257.206 121.522 258.022 118.036 257.014 117.77C256.419 117.613 254.904 120.445 253.866 123.45C252.748 126.687 252.114 130.12 251.794 130.074C251.044 129.966 251.441 124.287 251.441 124.287C251.441 124.287 252.19 121.685 252.171 120.458C252.877 118.954 253.346 116.163 252.102 115.933C251.873 115.89 250.233 119.435 250.233 119.435C250.233 119.435 249.589 121.93 249.213 123.096C248.55 125.154 248.45 128.402 248.105 129.835C247.817 131.026 247.557 130.537 247.439 130.587C247.347 130.625 247.507 128.982 247.691 126.722C247.783 125.584 247.661 124.272 247.958 122.976C248.232 121.776 248.39 120.058 248.461 119.021C248.663 116.083 246.94 116.384 246.344 119.069C246.117 120.093 245.878 121.209 245.641 122.341C244.715 126.744 244.741 130.986 244.299 131.022C243.725 131.067 244.103 123.344 244.103 123.344C244.103 123.344 243.222 119.069 242.346 123.036C241.331 127.64 241.437 131.394 241.451 131.56C241.543 132.684 240.786 136.703 241.665 140.578Z" fill="#F8A492"/>
<path d="M296.684 221.619C296.684 221.619 281.442 220.849 277.505 218.937C275.117 217.777 255.506 200.815 255.506 200.815L255.726 155.4L241.933 154.275C241.933 154.275 234.782 204.472 237.259 209.968C239.817 215.642 268.524 239.002 274.265 249.139C277.572 254.979 284.47 334.401 285.514 335.116C292.942 339.266 315.879 343.409 315.339 340.893C300.407 271.333 296.684 221.619 296.684 221.619Z" fill="#D3D3D3"/>
<path d="M410.704 152.649C410.704 179.841 390.167 201.884 364.834 201.884C339.501 201.884 318.964 179.841 318.964 152.649C318.964 125.457 339.501 103.414 364.834 103.414C390.167 103.414 410.704 125.457 410.704 152.649Z" fill="#FFCE88"/>
<path d="M403.325 152.649C403.325 175.466 386.092 193.964 364.834 193.964C343.576 193.964 326.343 175.466 326.343 152.649C326.343 129.831 343.576 111.334 364.834 111.334C386.092 111.334 403.325 129.831 403.325 152.649Z" fill="#FFBE55"/>
<path d="M352.918 179.176L355.108 172.692C352.423 171.499 349.932 169.905 347.986 168.272C346.362 166.909 346.004 164.427 347.166 162.598L347.306 162.378C348.587 160.364 351.199 159.93 352.969 161.458C354.773 163.016 356.948 164.45 359.436 165.418C363.061 166.829 366.048 166.292 366.97 163.562C367.846 160.969 366.364 158.538 362.235 155C356.262 149.896 352.772 144.676 355.009 138.056C357.038 132.049 362.571 128.874 369.859 130.089L372.049 123.605L378.281 126.03L376.252 132.036C378.527 133.047 380.315 134.119 381.751 135.193C383.506 136.505 383.936 139.097 382.73 140.994C381.483 142.953 378.969 143.419 377.188 142.012C375.854 140.957 374.134 139.861 371.889 138.988C367.756 137.379 365.776 138.771 365.13 140.682C364.369 142.934 366.111 145.233 370.778 149.521C377.376 155.333 379.16 160.275 377.086 166.418C375.033 172.492 369.275 176.12 361.501 174.64L359.15 181.602L352.918 179.176Z" fill="white"/>
<path d="M363.659 202.14C363.659 202.14 367.903 200.187 369.04 199.78C370.177 199.374 373.815 198.641 373.815 198.641C373.815 198.641 379.462 192.418 380.902 192.255C382.342 192.092 377.605 199.048 377.605 199.048L375.634 201.082C375.634 201.082 378.818 198.153 379.424 197.747C380.03 197.34 384.805 189.936 386.018 190.425C387.231 190.912 383.971 196.119 382.38 198.886C380.788 201.652 373.511 203.36 373.511 203.36L363.659 202.14Z" fill="#F7A491"/>
<path d="M414.386 222.239C414.378 223.459 388.602 223.795 383.259 248.329L379.823 247.117C387.478 222.178 413 223.182 414.249 222.264C414.266 222.251 414.274 222.237 414.272 222.239H414.386Z" fill="#FFBE55"/>
<path d="M522.849 380.071L523.735 376.799C528.421 375.849 532.456 372.424 533.784 367.517C534.21 365.947 534.503 364.619 534.72 362.842L528.441 360.883L529.558 356.761L535.227 358.53C535.454 356.472 535.779 353.806 536.47 351.254C538.561 343.534 544.862 340.036 551.628 342.147C553.559 342.75 555.049 343.53 556.156 344.331C557.161 345.058 557.424 346.525 556.763 347.615C556.098 348.71 554.744 349.023 553.706 348.338C552.844 347.769 551.747 347.222 550.37 346.792C545.616 345.309 542.709 348.234 541.451 352.879C540.689 355.693 540.488 357.9 540.286 360.108L549.064 362.847L547.947 366.969L539.657 364.383C539.167 366.926 538.616 369.45 537.429 371.635C535.997 374.239 533.896 376.138 531.309 377.389L531.274 377.52L547.295 382.518C548.479 382.887 549.16 384.218 548.816 385.489L548.768 385.662C548.424 386.933 547.185 387.664 546.001 387.294L522.849 380.071Z" fill="#FFBE55"/>
</svg>
